# xmcd CD database file
#
# Track frame offsets:
#	150
#	21542
#	38882
#	55050
#	77682
#	97707
#	114037
#	131085
#	151070
#	166267
#	182959
#	199080
#	221017
#	237385
#
# Disc length: 3557 seconds
#
# Revision: 25
# Processed by: cddbd v1.5.2PL0 Copyright (c) Steve Scherf et al.
# Submitted via: CDex 1.51
#
DISCID=b20de30e
DTITLE=AEROSMITH - JUST PUSH PLAY
DYEAR=2001
DGENRE=Hard Rock
TTITLE0=BEYOND BEAUTIFUL
TTITLE1=JUST PUSH PLAY
TTITLE2=JADED
TTITLE3=FLY AWAY FROM HERE 
TTITLE4=TRIP HOPPIN' 
TTITLE5=SUNSHINE
TTITLE6=UNDER MY SKIN
TTITLE7=LUV LIES
TTITLE8=OUTTA YOUR HEAD
TTITLE9=DROP DEAD GORGEOUS 
TTITLE10=LIGHT INSIDE
TTITLE11=AVANT GARDEN
TTITLE12=WON'T LET YOU DOWN
TTITLE13=I DON'T WANT TO MISS A THING
EXTD=YEAR: 2001
EXTT0=
EXTT1=
EXTT2=
EXTT3=
EXTT4=
EXTT5=
EXTT6=
EXTT7=
EXTT8=
EXTT9=
EXTT10=
EXTT11=
EXTT12=
EXTT13=
PLAYORDER=
